<?xml version="1.0" encoding="UTF-8" standalone="no"?>
<!DOCTYPE svg PUBLIC "-//W3C//DTD SVG 1.1//EN"
 "http://www.w3.org/Graphics/SVG/1.1/DTD/svg11.dtd">
<!-- Generated by graphviz version 15.0.0 (20260523.1842)
 -->
<!-- Title: experiments Pages: 1 -->
<svg width="382pt" height="1100pt"
 viewBox="0.00 0.00 382.00 1100.00" xmlns="http://www.w3.org/2000/svg" xmlns:xlink="http://www.w3.org/1999/xlink">
<g id="graph0" class="graph" transform="scale(1 1) rotate(0) translate(4 1095.75)">
<title>experiments</title>
<polygon fill="white" stroke="none" points="-4,4 -4,-1095.75 378,-1095.75 378,4 -4,4"/>
<g id="clust1" class="cluster">
<title>cluster_found</title>
<path fill="#fbf8f1" stroke="#bbbbbb" d="M51,-548C51,-548 323,-548 323,-548 329,-548 335,-554 335,-560 335,-560 335,-1071.75 335,-1071.75 335,-1077.75 329,-1083.75 323,-1083.75 323,-1083.75 51,-1083.75 51,-1083.75 45,-1083.75 39,-1077.75 39,-1071.75 39,-1071.75 39,-560 39,-560 39,-554 45,-548 51,-548"/>
<text xml:space="preserve" text-anchor="start" x="50.5" y="-1068.4" font-family="Helvetica,sans-Serif" font-weight="bold" font-size="13.00">FOUNDATIONS &#160;(later found contaminated)</text>
</g>
<g id="clust2" class="cluster">
<title>cluster_audit</title>
<path fill="#fbf5ec" stroke="#bbbbbb" d="M20,-8C20,-8 354,-8 354,-8 360,-8 366,-14 366,-20 366,-20 366,-502.75 366,-502.75 366,-508.75 360,-514.75 354,-514.75 354,-514.75 20,-514.75 20,-514.75 14,-514.75 8,-508.75 8,-502.75 8,-502.75 8,-20 8,-20 8,-14 14,-8 20,-8"/>
<text xml:space="preserve" text-anchor="start" x="109.75" y="-499.4" font-family="Helvetica,sans-Serif" font-weight="bold" font-size="13.00">AUDIT &#160;&#45;&gt; &#160;FAIR RE&#45;RUN</text>
</g>
<!-- SFT -->
<g id="node1" class="node">
<title>SFT</title>
<polygon fill="#d9c89a" stroke="none" points="55.12,-1021.25 55.12,-1050.25 318.88,-1050.25 318.88,-1021.25 55.12,-1021.25"/>
<polygon fill="none" stroke="black" points="55.12,-1021.25 55.12,-1050.25 318.88,-1050.25 318.88,-1021.25 55.12,-1021.25"/>
<text xml:space="preserve" text-anchor="start" x="116.5" y="-1030.95" font-family="Helvetica,sans-Serif" font-weight="bold" font-size="14.00">char model, plain SFT</text>
<polygon fill="none" stroke="black" points="55.12,-983.25 55.12,-1021.25 318.88,-1021.25 318.88,-983.25 55.12,-983.25"/>
<text xml:space="preserve" text-anchor="start" x="84.25" y="-1005.25" font-family="Helvetica,sans-Serif" font-size="11.00">50M letter&#45;by&#45;letter model · spell warm&#45;up ·</text>
<text xml:space="preserve" text-anchor="start" x="62.12" y="-993.25" font-family="Helvetica,sans-Serif" font-size="11.00">imitates a near&#45;optimal solver · no scratchpad/helper</text>
<polygon fill="#f1ead9" stroke="none" points="55.12,-958 55.12,-983.25 318.88,-983.25 318.88,-958 55.12,-958"/>
<polygon fill="none" stroke="black" points="55.12,-958 55.12,-983.25 318.88,-983.25 318.88,-958 55.12,-958"/>
<text xml:space="preserve" text-anchor="start" x="62.12" y="-967.75" font-family="Helvetica,sans-Serif" font-style="italic" font-size="10.00">why:</text>
<text xml:space="preserve" text-anchor="start" x="83.12" y="-967.75" font-family="Helvetica,sans-Serif" font-size="10.00"> head&#45;start before RL</text>
<polygon fill="#4a4a4a" stroke="none" points="55.12,-929 55.12,-958 318.88,-958 318.88,-929 55.12,-929"/>
<polygon fill="none" stroke="black" points="55.12,-929 55.12,-958 318.88,-958 318.88,-929 55.12,-929"/>
<text xml:space="preserve" text-anchor="start" x="79.75" y="-938.7" font-family="Helvetica,sans-Serif" font-weight="bold" font-size="14.00" fill="white">0.402</text>
<text xml:space="preserve" text-anchor="start" x="113.5" y="-938.7" font-family="Helvetica,sans-Serif" font-size="14.00" fill="white"> &#160;valid 0.664 &#160;&#160;[!] contaminated</text>
</g>
<!-- COT -->
<g id="node2" class="node">
<title>COT</title>
<polygon fill="#d9c89a" stroke="none" points="76.12,-836.75 76.12,-865.75 297.88,-865.75 297.88,-836.75 76.12,-836.75"/>
<polygon fill="none" stroke="black" points="76.12,-836.75 76.12,-865.75 297.88,-865.75 297.88,-836.75 76.12,-836.75"/>
<text xml:space="preserve" text-anchor="start" x="110.88" y="-846.45" font-family="Helvetica,sans-Serif" font-weight="bold" font-size="14.00">+ reasoning scratchpad</text>
<polygon fill="none" stroke="black" points="76.12,-798.75 76.12,-836.75 297.88,-836.75 297.88,-798.75 76.12,-798.75"/>
<text xml:space="preserve" text-anchor="start" x="100" y="-820.75" font-family="Helvetica,sans-Serif" font-size="11.00">jots candidate words, then commits ·</text>
<text xml:space="preserve" text-anchor="start" x="83.12" y="-808.75" font-family="Helvetica,sans-Serif" font-size="11.00">re&#45;thought each turn, discarded at play time</text>
<polygon fill="#f1ead9" stroke="none" points="76.12,-773.5 76.12,-798.75 297.88,-798.75 297.88,-773.5 76.12,-773.5"/>
<polygon fill="none" stroke="black" points="76.12,-773.5 76.12,-798.75 297.88,-798.75 297.88,-773.5 76.12,-773.5"/>
<text xml:space="preserve" text-anchor="start" x="83.12" y="-783.25" font-family="Helvetica,sans-Serif" font-style="italic" font-size="10.00">why:</text>
<text xml:space="preserve" text-anchor="start" x="104.12" y="-783.25" font-family="Helvetica,sans-Serif" font-size="10.00"> deliberate before committing</text>
<polygon fill="#4a4a4a" stroke="none" points="76.12,-744.5 76.12,-773.5 297.88,-773.5 297.88,-744.5 76.12,-744.5"/>
<polygon fill="none" stroke="black" points="76.12,-744.5 76.12,-773.5 297.88,-773.5 297.88,-744.5 76.12,-744.5"/>
<text xml:space="preserve" text-anchor="start" x="116.12" y="-754.2" font-family="Helvetica,sans-Serif" font-weight="bold" font-size="14.00" fill="white">0.430</text>
<text xml:space="preserve" text-anchor="start" x="149.88" y="-754.2" font-family="Helvetica,sans-Serif" font-size="14.00" fill="white"> &#160;&#160;[!] contaminated</text>
</g>
<!-- SFT&#45;&gt;COT -->
<g id="edge1" class="edge">
<title>SFT&#45;&gt;COT</title>
<path fill="none" stroke="#555555" stroke-width="1.4" d="M187,-925.05C187,-910.99 187,-895.95 187,-881.47"/>
<polygon fill="#555555" stroke="#555555" stroke-width="1.4" points="190.5,-881.59 187,-871.59 183.5,-881.59 190.5,-881.59"/>
<text xml:space="preserve" text-anchor="middle" x="217.38" y="-893.5" font-family="Helvetica,sans-Serif" font-size="10.00">add reasoning</text>
</g>
<!-- AUX -->
<g id="node3" class="node">
<title>AUX</title>
<polygon fill="#d9c89a" stroke="none" points="72.75,-652.25 72.75,-681.25 301.25,-681.25 301.25,-652.25 72.75,-652.25"/>
<polygon fill="none" stroke="black" points="72.75,-652.25 72.75,-681.25 301.25,-681.25 301.25,-652.25 72.75,-652.25"/>
<text xml:space="preserve" text-anchor="start" x="133.38" y="-661.95" font-family="Helvetica,sans-Serif" font-weight="bold" font-size="14.00">+ spelling helper</text>
<polygon fill="none" stroke="black" points="72.75,-614.25 72.75,-652.25 301.25,-652.25 301.25,-614.25 72.75,-614.25"/>
<text xml:space="preserve" text-anchor="start" x="79.75" y="-636.25" font-family="Helvetica,sans-Serif" font-size="11.00">extra loss: stay on real&#45;word spellings ·</text>
<text xml:space="preserve" text-anchor="start" x="96.62" y="-624.25" font-family="Helvetica,sans-Serif" font-size="11.00">(dictionary used in training only)</text>
<polygon fill="#f1ead9" stroke="none" points="72.75,-589 72.75,-614.25 301.25,-614.25 301.25,-589 72.75,-589"/>
<polygon fill="none" stroke="black" points="72.75,-589 72.75,-614.25 301.25,-614.25 301.25,-589 72.75,-589"/>
<text xml:space="preserve" text-anchor="start" x="79.75" y="-598.75" font-family="Helvetica,sans-Serif" font-style="italic" font-size="10.00">why:</text>
<text xml:space="preserve" text-anchor="start" x="100.75" y="-598.75" font-family="Helvetica,sans-Serif" font-size="10.00"> make it spell real words itself</text>
<polygon fill="#4a4a4a" stroke="none" points="72.75,-560 72.75,-589 301.25,-589 301.25,-560 72.75,-560"/>
<polygon fill="none" stroke="black" points="72.75,-560 72.75,-589 301.25,-589 301.25,-560 72.75,-560"/>
<text xml:space="preserve" text-anchor="start" x="79.75" y="-569.7" font-family="Helvetica,sans-Serif" font-weight="bold" font-size="14.00" fill="white">0.616</text>
<text xml:space="preserve" text-anchor="start" x="113.5" y="-569.7" font-family="Helvetica,sans-Serif" font-size="14.00" fill="white"> &#160;valid 0.788 &#160;&#160;[!] contaminated</text>
</g>
<!-- COT&#45;&gt;AUX -->
<g id="edge2" class="edge">
<title>COT&#45;&gt;AUX</title>
<path fill="none" stroke="#555555" stroke-width="1.4" d="M187,-740.55C187,-726.49 187,-711.45 187,-696.97"/>
<polygon fill="#555555" stroke="#555555" stroke-width="1.4" points="190.5,-697.09 187,-687.09 183.5,-697.09 190.5,-697.09"/>
<text xml:space="preserve" text-anchor="middle" x="212.88" y="-709" font-family="Helvetica,sans-Serif" font-size="10.00">add spelling</text>
</g>
<!-- AUDIT -->
<g id="node4" class="node">
<title>AUDIT</title>
<polygon fill="#e8c98a" stroke="none" points="75.38,-452.25 75.38,-481.25 298.62,-481.25 298.62,-452.25 75.38,-452.25"/>
<polygon fill="none" stroke="black" points="75.38,-452.25 75.38,-481.25 298.62,-481.25 298.62,-452.25 75.38,-452.25"/>
<text xml:space="preserve" text-anchor="start" x="123.25" y="-461.95" font-family="Helvetica,sans-Serif" font-weight="bold" font-size="14.00">self&#45;audit (4 agents)</text>
<polygon fill="none" stroke="black" points="75.38,-414.25 75.38,-452.25 298.62,-452.25 298.62,-414.25 75.38,-414.25"/>
<text xml:space="preserve" text-anchor="start" x="85" y="-436.25" font-family="Helvetica,sans-Serif" font-size="11.00">answer words were leaking into training as</text>
<text xml:space="preserve" text-anchor="start" x="82.38" y="-424.25" font-family="Helvetica,sans-Serif" font-size="11.00">targets (via teacher + scratchpad word lists)</text>
<polygon fill="#f6ead2" stroke="none" points="75.38,-389 75.38,-414.25 298.62,-414.25 298.62,-389 75.38,-389"/>
<polygon fill="none" stroke="black" points="75.38,-389 75.38,-414.25 298.62,-414.25 298.62,-389 75.38,-389"/>
<text xml:space="preserve" text-anchor="start" x="82.38" y="-398.75" font-family="Helvetica,sans-Serif" font-style="italic" font-size="10.00">why:</text>
<text xml:space="preserve" text-anchor="start" x="103.38" y="-398.75" font-family="Helvetica,sans-Serif" font-size="10.00"> &quot;is this built correctly?&quot;</text>
</g>
<!-- AUX&#45;&gt;AUDIT -->
<g id="edge3" class="edge">
<title>AUX&#45;&gt;AUDIT</title>
<path fill="none" stroke="#555555" stroke-width="1.4" d="M187,-556.22C187,-537.01 187,-515.96 187,-496.92"/>
<polygon fill="#555555" stroke="#555555" stroke-width="1.4" points="190.5,-497.17 187,-487.17 183.5,-497.17 190.5,-497.17"/>
<text xml:space="preserve" text-anchor="middle" x="197.5" y="-524.5" font-family="Helvetica,sans-Serif" font-size="10.00">audit</text>
</g>
<!-- CLEAN -->
<g id="node5" class="node">
<title>CLEAN</title>
<polygon fill="#a9d3d9" stroke="none" points="75,-296.75 75,-325.75 299,-325.75 299,-296.75 75,-296.75"/>
<polygon fill="none" stroke="black" points="75,-296.75 75,-325.75 299,-325.75 299,-296.75 75,-296.75"/>
<text xml:space="preserve" text-anchor="start" x="148.38" y="-306.45" font-family="Helvetica,sans-Serif" font-weight="bold" font-size="14.00">clean re&#45;run</text>
<polygon fill="none" stroke="black" points="75,-258.75 75,-296.75 299,-296.75 299,-258.75 75,-258.75"/>
<text xml:space="preserve" text-anchor="start" x="82" y="-280.75" font-family="Helvetica,sans-Serif" font-size="11.00">held&#45;out answers removed from all training ·</text>
<text xml:space="preserve" text-anchor="start" x="117.25" y="-268.75" font-family="Helvetica,sans-Serif" font-size="11.00">scored on a truly unseen split</text>
<polygon fill="#e4f1f3" stroke="none" points="75,-233.5 75,-258.75 299,-258.75 299,-233.5 75,-233.5"/>
<polygon fill="none" stroke="black" points="75,-233.5 75,-258.75 299,-258.75 299,-233.5 75,-233.5"/>
<text xml:space="preserve" text-anchor="start" x="82" y="-243.25" font-family="Helvetica,sans-Serif" font-style="italic" font-size="10.00">why:</text>
<text xml:space="preserve" text-anchor="start" x="103" y="-243.25" font-family="Helvetica,sans-Serif" font-size="10.00"> strip the leak, get the real number</text>
<polygon fill="#2d6b73" stroke="none" points="75,-204.5 75,-233.5 299,-233.5 299,-204.5 75,-204.5"/>
<polygon fill="none" stroke="black" points="75,-204.5 75,-233.5 299,-233.5 299,-204.5 75,-204.5"/>
<text xml:space="preserve" text-anchor="start" x="86.88" y="-214.2" font-family="Helvetica,sans-Serif" font-weight="bold" font-size="14.00" fill="white">0.166</text>
<text xml:space="preserve" text-anchor="start" x="120.62" y="-214.2" font-family="Helvetica,sans-Serif" font-size="14.00" fill="white"> &#160;(leak did most of the work)</text>
</g>
<!-- AUDIT&#45;&gt;CLEAN -->
<g id="edge4" class="edge">
<title>AUDIT&#45;&gt;CLEAN</title>
<path fill="none" stroke="#555555" stroke-width="1.4" d="M187,-385.08C187,-371.4 187,-356.22 187,-341.4"/>
<polygon fill="#555555" stroke="#555555" stroke-width="1.4" points="190.5,-341.75 187,-331.75 183.5,-341.75 190.5,-341.75"/>
<text xml:space="preserve" text-anchor="middle" x="206.88" y="-353.5" font-family="Helvetica,sans-Serif" font-size="10.00">strip leak</text>
</g>
<!-- FAIR -->
<g id="node6" class="node">
<title>FAIR</title>
<polygon fill="#a9d3d9" stroke="none" points="23.62,-112.25 23.62,-141.25 350.38,-141.25 350.38,-112.25 23.62,-112.25"/>
<polygon fill="none" stroke="black" points="23.62,-112.25 23.62,-141.25 350.38,-141.25 350.38,-112.25 23.62,-112.25"/>
<text xml:space="preserve" text-anchor="start" x="124.38" y="-121.95" font-family="Helvetica,sans-Serif" font-weight="bold" font-size="14.00">fair model (stage&#45;1)</text>
<polygon fill="none" stroke="black" points="23.62,-74.25 23.62,-112.25 350.38,-112.25 350.38,-74.25 23.62,-74.25"/>
<text xml:space="preserve" text-anchor="start" x="30.62" y="-96.25" font-family="Helvetica,sans-Serif" font-size="11.00">knows the word list, not which are answers ·</text>
<text xml:space="preserve" text-anchor="start" x="55.75" y="-84.25" font-family="Helvetica,sans-Serif" font-size="11.00">longer warm&#45;up + stronger helper</text>
<polygon fill="#e4f1f3" stroke="none" points="23.62,-49 23.62,-74.25 350.38,-74.25 350.38,-49 23.62,-49"/>
<polygon fill="none" stroke="black" points="23.62,-49 23.62,-74.25 350.38,-74.25 350.38,-49 23.62,-49"/>
<text xml:space="preserve" text-anchor="start" x="30.62" y="-58.75" font-family="Helvetica,sans-Serif" font-style="italic" font-size="10.00">why:</text>
<text xml:space="preserve" text-anchor="start" x="51.62" y="-58.75" font-family="Helvetica,sans-Serif" font-size="10.00"> can&#39;t learn words if you hide them all &#45;&gt; know dict, deduce answer</text>
<polygon fill="#1f5e66" stroke="none" points="23.62,-20 23.62,-49 350.38,-49 350.38,-20 23.62,-20"/>
<polygon fill="none" stroke="black" points="23.62,-20 23.62,-49 350.38,-49 350.38,-20 23.62,-20"/>
<text xml:space="preserve" text-anchor="start" x="76.75" y="-29.7" font-family="Helvetica,sans-Serif" font-weight="bold" font-size="14.00" fill="white">0.281</text>
<text xml:space="preserve" text-anchor="start" x="110.5" y="-29.7" font-family="Helvetica,sans-Serif" font-size="14.00" fill="white"> &#160;valid 0.662 &#160;avg 4.33 &#160;&#160;[BASE]</text>
</g>
<!-- CLEAN&#45;&gt;FAIR -->
<g id="edge5" class="edge">
<title>CLEAN&#45;&gt;FAIR</title>
<path fill="none" stroke="#555555" stroke-width="1.4" d="M187,-200.55C187,-186.49 187,-171.45 187,-156.97"/>
<polygon fill="#555555" stroke="#555555" stroke-width="1.4" points="190.5,-157.09 187,-147.09 183.5,-157.09 190.5,-157.09"/>
<text xml:space="preserve" text-anchor="middle" x="239.88" y="-169" font-family="Helvetica,sans-Serif" font-size="10.00">know dict, hide answers</text>
</g>
</g>
</svg>
